<?xml version="1.0" encoding="utf-8"?>
<svg version="1.1" xmlns:xlink="http://www.w3.org/1999/xlink" width="885px" height="723px" xmlns="http://www.w3.org/2000/svg">
  <g transform="matrix(1 0 0 1 -890 -259 )">
    <path d="M 890 259  L 1775 259  L 1775 982  L 890 982  L 890 259  " fill-rule="nonzero" fill="#cccccc" stroke="none" />
    <path d="M 941 310  L 1724 310  L 1724 931  L 941 931  L 941 310  " fill-rule="nonzero" fill="#ffffff" stroke="none" />
    <path d="M 1404.425 475.9  C 1374.059 475.9  1350.2 452.041  1350.2 421.675  C 1350.2 391.309  1374.059 367.45  1404.425 367.45  C 1434.791 367.45  1458.65 391.309  1458.65 421.675  C 1458.65 452.041  1434.791 475.9  1404.425 475.9  " fill-rule="nonzero" fill="#cccccc" stroke="none" />
    <path d="M 959 913  L 959 591.25  L 1145.75 445  L 1407.2 626.250847457627  L 1556.6 532.75  L 1706 626.250847457627  L 1706 913  L 959 913  " fill-rule="nonzero" fill="#169bd5" stroke="none" />
  </g>
</svg>