<?xml version="1.0" encoding="utf-8"?>
<svg version="1.1" xmlns:xlink="http://www.w3.org/1999/xlink" width="25px" height="25px" xmlns="http://www.w3.org/2000/svg">
  <g transform="matrix(1 0 0 1 -89 -427 )">
    <path d="M 101.5 427  C 108.5 427  114 432.5  114 439.5  C 114 446.5  108.5 452  101.5 452  C 94.5 452  89 446.5  89 439.5  C 89 432.5  94.5 427  101.5 427  Z " fill-rule="nonzero" fill="#ffffff" stroke="none" />
    <path d="M 101.5 427.5  C 108.22 427.5  113.5 432.78  113.5 439.5  C 113.5 446.22  108.22 451.5  101.5 451.5  C 94.78 451.5  89.5 446.22  89.5 439.5  C 89.5 432.78  94.78 427.5  101.5 427.5  Z " stroke-width="1" stroke="#009933" fill="none" />
  </g>
</svg>