<?xml version="1.0" encoding="utf-8"?>
<svg version="1.1" xmlns:xlink="http://www.w3.org/1999/xlink" width="1441px" height="218px" xmlns="http://www.w3.org/2000/svg">
  <g transform="matrix(1 0 0 1 -82 -121 )">
    <path d="M 82 121  L 1523 121  L 1523 339  L 82 339  L 82 121  " fill-rule="nonzero" fill="#cccccc" stroke="none" />
    <path d="M 97 136  L 1508 136  L 1508 324  L 97 324  L 97 136  " fill-rule="nonzero" fill="#ffffff" stroke="none" />
    <path d="M 847.67 186.4  C 838.514 186.4  831.32 179.206  831.32 170.05  C 831.32 160.894  838.514 153.7  847.67 153.7  C 856.826 153.7  864.02 160.894  864.02 170.05  C 864.02 179.206  856.826 186.4  847.67 186.4  " fill-rule="nonzero" fill="#cccccc" stroke="none" />
    <path d="M 103 319  L 103 221.65  L 453 177.4  L 943 302.933657182512  L 1223 203.95  L 1503 302.933657182512  L 1503 319  L 103 319  " fill-rule="nonzero" fill="#169bd5" stroke="none" />
  </g>
</svg>