<?xml version="1.0" encoding="utf-8"?>
<svg version="1.1" xmlns:xlink="http://www.w3.org/1999/xlink" width="81px" height="37px" xmlns="http://www.w3.org/2000/svg">
  <g transform="matrix(1 0 0 1 -1114 -599 )">
    <path d="M 1114 599  L 1195 599  L 1195 636  L 1114 636  L 1114 599  " fill-rule="nonzero" fill="#cccccc" stroke="none" />
    <path d="M 1117 602  L 1192 602  L 1192 633  L 1117 633  L 1117 602  " fill-rule="nonzero" fill="#ffffff" stroke="none" />
    <path d="M 1158.895 610.1  C 1157.341 610.1  1156.12 608.879  1156.12 607.325  C 1156.12 605.771  1157.341 604.55  1158.895 604.55  C 1160.449 604.55  1161.67 605.771  1161.67 607.325  C 1161.67 608.879  1160.449 610.1  1158.895 610.1  " fill-rule="nonzero" fill="#cccccc" stroke="none" />
    <path d="M 1118 632  L 1118 616.05  L 1136.25 608.8  L 1161.8 624.051851851852  L 1176.4 613.15  L 1191 624.051851851852  L 1191 632  L 1118 632  " fill-rule="nonzero" fill="#169bd5" stroke="none" />
  </g>
</svg>