<?xml version="1.0" encoding="utf-8"?>
<svg version="1.1" xmlns:xlink="http://www.w3.org/1999/xlink" width="860px" height="690px" xmlns="http://www.w3.org/2000/svg">
  <g transform="matrix(1 0 0 1 -837 -313 )">
    <path d="M 837 313  L 1697 313  L 1697 1003  L 837 1003  L 837 313  " fill-rule="nonzero" fill="#cccccc" stroke="none" />
    <path d="M 885 361  L 1649 361  L 1649 955  L 885 955  L 885 361  " fill-rule="nonzero" fill="#ffffff" stroke="none" />
    <path d="M 1335.95 520  C 1306.97 520  1284.2 497.23  1284.2 468.25  C 1284.2 439.27  1306.97 416.5  1335.95 416.5  C 1364.93 416.5  1387.7 439.27  1387.7 468.25  C 1387.7 497.23  1364.93 520  1335.95 520  " fill-rule="nonzero" fill="#cccccc" stroke="none" />
    <path d="M 903 938  L 903 630.55  L 1085.25 490.8  L 1340.4 668.9  L 1486.2 574.65  L 1632 668.9  L 1632 938  L 903 938  " fill-rule="nonzero" fill="#169bd5" stroke="none" />
  </g>
</svg>