<?xml version="1.0" encoding="utf-8"?>
<svg version="1.1" xmlns:xlink="http://www.w3.org/1999/xlink" width="25px" height="30px" xmlns="http://www.w3.org/2000/svg">
  <defs>
    <mask fill="white" id="clip9">
      <path d="M 24.9378551136364 22.919921875  C 24.9792850378788 23.5774739583333  25 24.2513020833333  25 24.94140625  C 25 26.50390625  24.5679450757576 27.7376302083333  23.7038352272727 28.642578125  C 22.8397253787879 29.5475260416667  21.6915246212121 30  20.2592329545455 30  L 4.74076704545455 30  C 3.30847537878788 30  2.16027462121212 29.5475260416667  1.29616477272727 28.642578125  C 0.432054924242424 27.7376302083333  0 26.50390625  0 24.94140625  C 0 24.2513020833333  0.0207149621212121 23.5774739583333  0.0621448863636364 22.919921875  C 0.103574810606061 22.2623697916667  0.186434659090909 21.552734375  0.310724431818182 20.791015625  C 0.435014204545455 20.029296875  0.591856060606061 19.3229166666667  0.78125 18.671875  C 0.970643939393939 18.0208333333333  1.22514204545455 17.3860677083333  1.54474431818182 16.767578125  C 1.86434659090909 16.1490885416667  2.23129734848485 15.6217447916667  2.64559659090909 15.185546875  C 3.05989583333333 14.7493489583333  3.56593276515152 14.4010416666667  4.16370738636364 14.140625  C 4.76148200757576 13.8802083333333  5.42140151515152 13.75  6.14346590909091 13.75  C 6.25 13.75  6.49857954545455 13.8899739583333  6.88920454545455 14.169921875  C 7.27982954545455 14.4498697916667  7.72076231060606 14.7623697916667  8.21200284090909 15.107421875  C 8.70324337121212 15.4524739583333  9.34244791666667 15.7649739583333  10.1296164772727 16.044921875  C 10.9167850378788 16.3248697916667  11.7069128787879 16.46484375  12.5 16.46484375  C 13.2930871212121 16.46484375  14.0832149621212 16.3248697916667  14.8703835227273 16.044921875  C 15.6575520833333 15.7649739583333  16.2967566287879 15.4524739583333  16.7879971590909 15.107421875  C 17.2792376893939 14.7623697916667  17.7201704545455 14.4498697916667  18.1107954545455 14.169921875  C 18.5014204545455 13.8899739583333  18.75 13.75  18.8565340909091 13.75  C 19.5785984848485 13.75  20.2385179924242 13.8802083333333  20.8362926136364 14.140625  C 21.4340672348485 14.4010416666667  21.9401041666667 14.7493489583333  22.3544034090909 15.185546875  C 22.7687026515152 15.6217447916667  23.1356534090909 16.1490885416667  23.4552556818182 16.767578125  C 23.7748579545455 17.3860677083333  24.0293560606061 18.0208333333333  24.21875 18.671875  C 24.4081439393939 19.3229166666667  24.5649857954545 20.029296875  24.6892755681818 20.791015625  C 24.8135653409091 21.552734375  24.8964251893939 22.2623697916667  24.9378551136364 22.919921875  Z M 17.3206676136364 2.197265625  C 18.65234375 3.662109375  19.3181818181818 5.4296875  19.3181818181818 7.5  C 19.3181818181818 9.5703125  18.65234375 11.337890625  17.3206676136364 12.802734375  C 15.9889914772727 14.267578125  14.3821022727273 15  12.5 15  C 10.6178977272727 15  9.01100852272727 14.267578125  7.67933238636364 12.802734375  C 6.34765625 11.337890625  5.68181818181818 9.5703125  5.68181818181818 7.5  C 5.68181818181818 5.4296875  6.34765625 3.662109375  7.67933238636364 2.197265625  C 9.01100852272727 0.732421875  10.6178977272727 0  12.5 0  C 14.3821022727273 0  15.9889914772727 0.732421875  17.3206676136364 2.197265625  Z " fill-rule="evenodd" />
    </mask>
  </defs>
  <g transform="matrix(1 0 0 1 -359 -248 )">
    <path d="M 24.9378551136364 22.919921875  C 24.9792850378788 23.5774739583333  25 24.2513020833333  25 24.94140625  C 25 26.50390625  24.5679450757576 27.7376302083333  23.7038352272727 28.642578125  C 22.8397253787879 29.5475260416667  21.6915246212121 30  20.2592329545455 30  L 4.74076704545455 30  C 3.30847537878788 30  2.16027462121212 29.5475260416667  1.29616477272727 28.642578125  C 0.432054924242424 27.7376302083333  0 26.50390625  0 24.94140625  C 0 24.2513020833333  0.0207149621212121 23.5774739583333  0.0621448863636364 22.919921875  C 0.103574810606061 22.2623697916667  0.186434659090909 21.552734375  0.310724431818182 20.791015625  C 0.435014204545455 20.029296875  0.591856060606061 19.3229166666667  0.78125 18.671875  C 0.970643939393939 18.0208333333333  1.22514204545455 17.3860677083333  1.54474431818182 16.767578125  C 1.86434659090909 16.1490885416667  2.23129734848485 15.6217447916667  2.64559659090909 15.185546875  C 3.05989583333333 14.7493489583333  3.56593276515152 14.4010416666667  4.16370738636364 14.140625  C 4.76148200757576 13.8802083333333  5.42140151515152 13.75  6.14346590909091 13.75  C 6.25 13.75  6.49857954545455 13.8899739583333  6.88920454545455 14.169921875  C 7.27982954545455 14.4498697916667  7.72076231060606 14.7623697916667  8.21200284090909 15.107421875  C 8.70324337121212 15.4524739583333  9.34244791666667 15.7649739583333  10.1296164772727 16.044921875  C 10.9167850378788 16.3248697916667  11.7069128787879 16.46484375  12.5 16.46484375  C 13.2930871212121 16.46484375  14.0832149621212 16.3248697916667  14.8703835227273 16.044921875  C 15.6575520833333 15.7649739583333  16.2967566287879 15.4524739583333  16.7879971590909 15.107421875  C 17.2792376893939 14.7623697916667  17.7201704545455 14.4498697916667  18.1107954545455 14.169921875  C 18.5014204545455 13.8899739583333  18.75 13.75  18.8565340909091 13.75  C 19.5785984848485 13.75  20.2385179924242 13.8802083333333  20.8362926136364 14.140625  C 21.4340672348485 14.4010416666667  21.9401041666667 14.7493489583333  22.3544034090909 15.185546875  C 22.7687026515152 15.6217447916667  23.1356534090909 16.1490885416667  23.4552556818182 16.767578125  C 23.7748579545455 17.3860677083333  24.0293560606061 18.0208333333333  24.21875 18.671875  C 24.4081439393939 19.3229166666667  24.5649857954545 20.029296875  24.6892755681818 20.791015625  C 24.8135653409091 21.552734375  24.8964251893939 22.2623697916667  24.9378551136364 22.919921875  Z M 17.3206676136364 2.197265625  C 18.65234375 3.662109375  19.3181818181818 5.4296875  19.3181818181818 7.5  C 19.3181818181818 9.5703125  18.65234375 11.337890625  17.3206676136364 12.802734375  C 15.9889914772727 14.267578125  14.3821022727273 15  12.5 15  C 10.6178977272727 15  9.01100852272727 14.267578125  7.67933238636364 12.802734375  C 6.34765625 11.337890625  5.68181818181818 9.5703125  5.68181818181818 7.5  C 5.68181818181818 5.4296875  6.34765625 3.662109375  7.67933238636364 2.197265625  C 9.01100852272727 0.732421875  10.6178977272727 0  12.5 0  C 14.3821022727273 0  15.9889914772727 0.732421875  17.3206676136364 2.197265625  Z " fill-rule="nonzero" fill="#ffffff" stroke="none" transform="matrix(1 0 0 1 359 248 )" />
    <path d="M 24.9378551136364 22.919921875  C 24.9792850378788 23.5774739583333  25 24.2513020833333  25 24.94140625  C 25 26.50390625  24.5679450757576 27.7376302083333  23.7038352272727 28.642578125  C 22.8397253787879 29.5475260416667  21.6915246212121 30  20.2592329545455 30  L 4.74076704545455 30  C 3.30847537878788 30  2.16027462121212 29.5475260416667  1.29616477272727 28.642578125  C 0.432054924242424 27.7376302083333  0 26.50390625  0 24.94140625  C 0 24.2513020833333  0.0207149621212121 23.5774739583333  0.0621448863636364 22.919921875  C 0.103574810606061 22.2623697916667  0.186434659090909 21.552734375  0.310724431818182 20.791015625  C 0.435014204545455 20.029296875  0.591856060606061 19.3229166666667  0.78125 18.671875  C 0.970643939393939 18.0208333333333  1.22514204545455 17.3860677083333  1.54474431818182 16.767578125  C 1.86434659090909 16.1490885416667  2.23129734848485 15.6217447916667  2.64559659090909 15.185546875  C 3.05989583333333 14.7493489583333  3.56593276515152 14.4010416666667  4.16370738636364 14.140625  C 4.76148200757576 13.8802083333333  5.42140151515152 13.75  6.14346590909091 13.75  C 6.25 13.75  6.49857954545455 13.8899739583333  6.88920454545455 14.169921875  C 7.27982954545455 14.4498697916667  7.72076231060606 14.7623697916667  8.21200284090909 15.107421875  C 8.70324337121212 15.4524739583333  9.34244791666667 15.7649739583333  10.1296164772727 16.044921875  C 10.9167850378788 16.3248697916667  11.7069128787879 16.46484375  12.5 16.46484375  C 13.2930871212121 16.46484375  14.0832149621212 16.3248697916667  14.8703835227273 16.044921875  C 15.6575520833333 15.7649739583333  16.2967566287879 15.4524739583333  16.7879971590909 15.107421875  C 17.2792376893939 14.7623697916667  17.7201704545455 14.4498697916667  18.1107954545455 14.169921875  C 18.5014204545455 13.8899739583333  18.75 13.75  18.8565340909091 13.75  C 19.5785984848485 13.75  20.2385179924242 13.8802083333333  20.8362926136364 14.140625  C 21.4340672348485 14.4010416666667  21.9401041666667 14.7493489583333  22.3544034090909 15.185546875  C 22.7687026515152 15.6217447916667  23.1356534090909 16.1490885416667  23.4552556818182 16.767578125  C 23.7748579545455 17.3860677083333  24.0293560606061 18.0208333333333  24.21875 18.671875  C 24.4081439393939 19.3229166666667  24.5649857954545 20.029296875  24.6892755681818 20.791015625  C 24.8135653409091 21.552734375  24.8964251893939 22.2623697916667  24.9378551136364 22.919921875  Z " stroke-width="4" stroke="#797979" fill="none" transform="matrix(1 0 0 1 359 248 )" mask="url(#clip9)" />
    <path d="M 17.3206676136364 2.197265625  C 18.65234375 3.662109375  19.3181818181818 5.4296875  19.3181818181818 7.5  C 19.3181818181818 9.5703125  18.65234375 11.337890625  17.3206676136364 12.802734375  C 15.9889914772727 14.267578125  14.3821022727273 15  12.5 15  C 10.6178977272727 15  9.01100852272727 14.267578125  7.67933238636364 12.802734375  C 6.34765625 11.337890625  5.68181818181818 9.5703125  5.68181818181818 7.5  C 5.68181818181818 5.4296875  6.34765625 3.662109375  7.67933238636364 2.197265625  C 9.01100852272727 0.732421875  10.6178977272727 0  12.5 0  C 14.3821022727273 0  15.9889914772727 0.732421875  17.3206676136364 2.197265625  Z " stroke-width="4" stroke="#797979" fill="none" transform="matrix(1 0 0 1 359 248 )" mask="url(#clip9)" />
  </g>
</svg>