<?xml version="1.0" encoding="utf-8"?>
<svg version="1.1" xmlns:xlink="http://www.w3.org/1999/xlink" width="10px" height="14px" xmlns="http://www.w3.org/2000/svg">
  <g transform="matrix(1 0 0 1 -359 -426 )">
    <path d="M 9.814453125 0.461805555555556  C 9.93815104166667 0.769675925925923  10 1.13425925925926  10 1.55555555555556  C 10 1.97685185185185  9.93815104166667 2.34143518518518  9.814453125 2.64930555555556  L 5.439453125 13.5381944444444  C 5.31575520833333 13.8460648148148  5.16927083333333 14  5 14  C 4.83072916666667 14  4.68424479166667 13.8460648148148  4.560546875 13.5381944444444  L 0.185546875 2.64930555555556  C 0.0618489583333333 2.34143518518518  0 1.97685185185185  0 1.55555555555556  C 0 1.13425925925926  0.0618489583333333 0.769675925925923  0.185546875 0.461805555555556  C 0.309244791666667 0.153935185185183  0.455729166666667 0  0.625 0  L 9.375 0  C 9.54427083333333 0  9.69075520833333 0.153935185185183  9.814453125 0.461805555555556  Z " fill-rule="nonzero" fill="#333333" stroke="none" transform="matrix(1 0 0 1 359 426 )" />
  </g>
</svg>