<?xml version="1.0" encoding="utf-8"?>
<svg version="1.1" xmlns:xlink="http://www.w3.org/1999/xlink" width="10px" height="14px" xmlns="http://www.w3.org/2000/svg">
  <g transform="matrix(1 0 0 1 -397 -694 )">
    <path d="M 9.814453125 0.461805555555543  C 9.93815104166669 0.769675925925924  10 1.13425925925924  10 1.55555555555554  C 10 1.97685185185185  9.93815104166669 2.34143518518516  9.814453125 2.64930555555554  L 5.439453125 13.5381944444445  C 5.31575520833331 13.8460648148148  5.16927083333331 14  5 14  C 4.83072916666669 14  4.68424479166669 13.8460648148148  4.560546875 13.5381944444445  L 0.185546875 2.64930555555554  C 0.0618489583333063 2.34143518518516  0 1.97685185185185  0 1.55555555555554  C 0 1.13425925925924  0.0618489583333063 0.769675925925924  0.185546875 0.461805555555543  C 0.309244791666694 0.153935185185162  0.455729166666694 0  0.625 0  L 4.16665319954429 0  L 9.375 0  C 9.54427083333331 0  9.69075520833331 0.153935185185162  9.814453125 0.461805555555543  Z " fill-rule="nonzero" fill="#333333" stroke="none" transform="matrix(1 0 0 1 397 694 )" />
  </g>
</svg>