<?xml version="1.0" encoding="utf-8"?>
<svg version="1.1" xmlns:xlink="http://www.w3.org/1999/xlink" width="12px" height="12px" viewBox="210 403  12 12" xmlns="http://www.w3.org/2000/svg">
  <path d="M 216 403  C 219.36 403  222 405.64  222 409  C 222 412.36  219.36 415  216 415  C 212.64 415  210 412.36  210 409  C 210 405.64  212.64 403  216 403  Z " fill-rule="nonzero" fill="#f0f0f0" stroke="none" />
  <path d="M 216 403.5  C 219.08 403.5  221.5 405.92  221.5 409  C 221.5 412.08  219.08 414.5  216 414.5  C 212.92 414.5  210.5 412.08  210.5 409  C 210.5 405.92  212.92 403.5  216 403.5  Z " stroke-width="1" stroke="#797979" fill="none" />
  <path d="M 216 412  C 214.32 412  213 410.68  213 409  C 213 407.32  214.32 406  216 406  C 217.68 406  219 407.32  219 409  C 219 410.68  217.68 412  216 412  " fill-rule="nonzero" fill="#797979" stroke="none" />
</svg>