<?xml version="1.0" encoding="utf-8"?>
<svg version="1.1" xmlns:xlink="http://www.w3.org/1999/xlink" width="12px" height="12px" viewBox="285 403  12 12" xmlns="http://www.w3.org/2000/svg">
  <path d="M 291 403  C 294.36 403  297 405.64  297 409  C 297 412.36  294.36 415  291 415  C 287.64 415  285 412.36  285 409  C 285 405.64  287.64 403  291 403  Z " fill-rule="nonzero" fill="#ffffff" stroke="none" />
  <path d="M 291 403.5  C 294.08 403.5  296.5 405.92  296.5 409  C 296.5 412.08  294.08 414.5  291 414.5  C 287.92 414.5  285.5 412.08  285.5 409  C 285.5 405.92  287.92 403.5  291 403.5  Z " stroke-width="1" stroke="#797979" fill="none" />
  <path d="M 291 412  C 289.32 412  288 410.68  288 409  C 288 407.32  289.32 406  291 406  C 292.68 406  294 407.32  294 409  C 294 410.68  292.68 412  291 412  " fill-rule="nonzero" fill="#797979" stroke="none" />
</svg>