<?xml version="1.0" encoding="utf-8"?>
<svg version="1.1" xmlns:xlink="http://www.w3.org/1999/xlink" width="12px" height="12px" viewBox="136 403  12 12" xmlns="http://www.w3.org/2000/svg">
  <path d="M 142 403  C 145.36 403  148 405.64  148 409  C 148 412.36  145.36 415  142 415  C 138.64 415  136 412.36  136 409  C 136 405.64  138.64 403  142 403  Z " fill-rule="nonzero" fill="#f0f0f0" stroke="none" />
  <path d="M 142 403.5  C 145.08 403.5  147.5 405.92  147.5 409  C 147.5 412.08  145.08 414.5  142 414.5  C 138.92 414.5  136.5 412.08  136.5 409  C 136.5 405.92  138.92 403.5  142 403.5  Z " stroke-width="1" stroke="#797979" fill="none" />
  <path d="M 142 412  C 140.32 412  139 410.68  139 409  C 139 407.32  140.32 406  142 406  C 143.68 406  145 407.32  145 409  C 145 410.68  143.68 412  142 412  " fill-rule="nonzero" fill="#797979" stroke="none" />
</svg>