<?xml version="1.0" encoding="utf-8"?>
<svg version="1.1" xmlns:xlink="http://www.w3.org/1999/xlink" width="20px" height="20px" xmlns="http://www.w3.org/2000/svg">
  <g transform="matrix(1 0 0 1 -757 -923 )">
    <path d="M 16.4192708333333 18.359375  C 16.5842013888889 18.218005952381  16.6666666666667 18.0505952380952  16.6666666666667 17.8571428571429  C 16.6666666666667 17.6636904761905  16.5842013888889 17.4962797619048  16.4192708333333 17.3549107142857  C 16.2543402777778 17.2135416666667  16.0590277777778 17.1428571428571  15.8333333333333 17.1428571428571  C 15.6076388888889 17.1428571428571  15.4123263888889 17.2135416666667  15.2473958333333 17.3549107142857  C 15.0824652777778 17.4962797619048  15 17.6636904761905  15 17.8571428571429  C 15 18.0505952380952  15.0824652777778 18.218005952381  15.2473958333333 18.359375  C 15.4123263888889 18.500744047619  15.6076388888889 18.5714285714286  15.8333333333333 18.5714285714286  C 16.0590277777778 18.5714285714286  16.2543402777778 18.500744047619  16.4192708333333 18.359375  Z M 17.9166666666667 11.3337053571429  C 18.1944444444444 10.600818452381  18.3333333333333 9.93303571428571  18.3333333333333 9.33035714285714  C 18.3333333333333 7.92410714285714  17.6085069444444 7.22098214285714  16.1588541666667 7.22098214285714  C 15.9331597222222 7.22098214285714  15.6901041666667 7.23958333333333  15.4296875 7.27678571428571  C 15.2907986111111 7.05357142857143  15.0629340277778 6.87686011904762  14.74609375 6.74665178571429  C 14.4292534722222 6.61644345238095  14.1102430555556 6.55133928571429  13.7890625 6.55133928571429  C 13.4678819444444 6.55133928571429  13.1684027777778 6.61830357142857  12.890625 6.75223214285714  C 12.4565972222222 6.3578869047619  11.9401041666667 6.16071428571429  11.3411458333333 6.16071428571429  C 11.1241319444444 6.16071428571429  10.8832465277778 6.19791666666667  10.6184895833333 6.27232142857143  C 10.3537326388889 6.34672619047619  10.1475694444444 6.43973214285714  10 6.55133928571429  L 10 2.85714285714286  C 10 2.4702380952381  9.83506944444444 2.13541666666667  9.50520833333333 1.85267857142857  C 9.17534722222222 1.56994047619047  8.78472222222222 1.42857142857143  8.33333333333333 1.42857142857143  C 7.890625 1.42857142857143  7.50217013888889 1.57366071428571  7.16796875 1.86383928571429  C 6.83376736111111 2.15401785714286  6.66666666666667 2.48511904761905  6.66666666666667 2.85714285714286  L 6.66666666666667 9.28571428571429  C 6.49305555555556 9.28571428571429  6.28255208333333 9.22991071428571  6.03515625 9.11830357142857  C 5.78776041666667 9.00669642857143  5.54904513888889 8.88392857142857  5.31901041666667 8.75  C 5.08897569444445 8.61607142857143  4.79383680555556 8.49330357142857  4.43359375 8.38169642857143  C 4.07335069444444 8.27008928571429  3.70659722222222 8.21428571428571  3.33333333333333 8.21428571428571  C 2.75173611111111 8.21428571428571  2.32855902777778 8.37983630952381  2.06380208333333 8.7109375  C 1.79904513888889 9.04203869047619  1.66666666666667 9.47172619047619  1.66666666666667 10  C 1.66666666666667 10.1785714285714  2.26996527777778 10.5133928571429  3.4765625 11.0044642857143  C 3.85850694444444 11.1830357142857  4.140625 11.3206845238095  4.32291666666667 11.4174107142857  C 4.87847222222222 11.7150297619048  5.5078125 12.1316964285714  6.2109375 12.6674107142857  C 6.9140625 13.1956845238095  7.37413194444445 13.5714285714286  7.59114583333333 13.7946428571429  C 8.0859375 14.3080357142857  8.33333333333333 14.828869047619  8.33333333333333 15.3571428571429  L 8.33333333333333 15.7142857142857  L 16.6666666666667 15.7142857142857  L 16.6666666666667 15.3571428571429  C 16.6666666666667 14.8214285714286  16.8055555555556 14.2001488095238  17.0833333333333 13.4933035714286  C 17.3611111111111 12.7864583333333  17.6388888888889 12.0665922619048  17.9166666666667 11.3337053571429  Z M 18.9518229166667 6.74107142857143  C 19.6506076388889 7.38095238095238  20 8.22544642857143  20 9.27455357142857  C 20 10.2641369047619  19.7005208333333 11.4620535714286  19.1015625 12.8683035714286  C 18.5894097222222 14.0885416666667  18.3333333333333 14.9181547619048  18.3333333333333 15.3571428571429  L 18.3333333333333 18.5714285714286  C 18.3333333333333 18.9657738095238  18.1705729166667 19.3024553571429  17.8450520833333 19.5814732142857  C 17.51953125 19.8604910714286  17.1267361111111 20  16.6666666666667 20  L 8.33333333333333 20  C 7.87326388888889 20  7.48046875 19.8604910714286  7.15494791666667 19.5814732142857  C 6.82942708333333 19.3024553571429  6.66666666666667 18.9657738095238  6.66666666666667 18.5714285714286  L 6.66666666666667 15.3571428571429  C 6.66666666666667 15.2827380952381  6.64713541666667 15.2027529761905  6.60807291666667 15.1171875  C 6.56901041666667 15.0316220238095  6.50824652777778 14.9441964285714  6.42578125 14.8549107142857  C 6.34331597222222 14.765625  6.26519097222222 14.6819196428571  6.19140625 14.6037946428571  C 6.11762152777778 14.5256696428571  6.01996527777778 14.4363839285714  5.8984375 14.3359375  C 5.77690972222222 14.2354910714286  5.68359375 14.1592261904762  5.61848958333333 14.1071428571429  C 5.55338541666667 14.0550595238095  5.46006944444445 13.984375  5.33854166666667 13.8950892857143  C 5.21701388888889 13.8058035714286  5.14322916666667 13.7537202380952  5.1171875 13.7388392857143  C 4.47482638888889 13.2552083333333  3.91493055555556 12.8831845238095  3.4375 12.6227678571429  C 3.25520833333333 12.5260416666667  2.98611111111111 12.4032738095238  2.63020833333333 12.2544642857143  C 2.27430555555556 12.1056547619048  1.96180555555556 11.968005952381  1.69270833333333 11.8415178571429  C 1.42361111111111 11.7150297619048  1.15017361111111 11.5643601190476  0.872395833333333 11.3895089285714  C 0.594618055555556 11.2146577380952  0.379774305555556 11.0100446428571  0.227864583333333 10.7756696428571  C 0.0759548611111111 10.5412946428571  0 10.2827380952381  0 10  C 0 9.06994047619048  0.290798611111111 8.30171130952381  0.872395833333333 7.6953125  C 1.45399305555556 7.08891369047619  2.27430555555556 6.78571428571429  3.33333333333333 6.78571428571429  C 3.92361111111111 6.78571428571429  4.47916666666667 6.86755952380952  5 7.03125  L 5 2.85714285714286  C 5 2.08333333333333  5.32986111111111 1.41369047619047  5.98958333333333 0.848214285714286  C 6.64930555555556 0.282738095238098  7.42621527777778 0  8.3203125 0  C 9.23177083333333 0  10.0173611111111 0.280877976190477  10.6770833333333 0.842633928571428  C 11.3368055555556 1.40438988095238  11.6666666666667 2.07589285714286  11.6666666666667 2.85714285714286  L 11.6666666666667 4.74330357142857  C 12.2048611111111 4.77306547619047  12.7213541666667 4.91071428571429  13.2161458333333 5.15625  C 13.3984375 5.13392857142857  13.5850694444444 5.12276785714286  13.7760416666667 5.12276785714286  C 14.6527777777778 5.12276785714286  15.4253472222222 5.34598214285714  16.09375 5.79241071428571  C 17.3003472222222 5.78497023809524  18.2530381944444 6.10119047619047  18.9518229166667 6.74107142857143  Z " fill-rule="nonzero" fill="#333333" stroke="none" transform="matrix(1 0 0 1 757 923 )" />
  </g>
</svg>