<?xml version="1.0" encoding="utf-8"?>
<svg version="1.1" xmlns:xlink="http://www.w3.org/1999/xlink" width="10px" height="13px" xmlns="http://www.w3.org/2000/svg">
  <g transform="matrix(1 0 0 1 -332 -345 )">
    <path d="M 9.814453125 0.428819444444445  C 9.93815104166667 0.714699074074071  10 1.05324074074074  10 1.44444444444445  C 10 1.83564814814815  9.93815104166667 2.17418981481481  9.814453125 2.46006944444445  L 5.439453125 12.5711805555556  C 5.31575520833333 12.8570601851852  5.16927083333333 13  5 13  C 4.83072916666667 13  4.68424479166667 12.8570601851852  4.560546875 12.5711805555556  L 0.185546875 2.46006944444445  C 0.0618489583333333 2.17418981481481  0 1.83564814814815  0 1.44444444444445  C 0 1.05324074074074  0.0618489583333333 0.714699074074071  0.185546875 0.428819444444445  C 0.309244791666667 0.142939814814813  0.455729166666667 0  0.625 0  L 9.375 0  C 9.54427083333333 0  9.69075520833333 0.142939814814813  9.814453125 0.428819444444445  Z " fill-rule="nonzero" fill="#333333" stroke="none" transform="matrix(1 0 0 1 332 345 )" />
  </g>
</svg>