<?xml version="1.0" encoding="utf-8"?>
<svg version="1.1" xmlns:xlink="http://www.w3.org/1999/xlink" width="10px" height="13px" xmlns="http://www.w3.org/2000/svg">
  <g transform="matrix(1 0 0 1 -371 -603 )">
    <path d="M 9.814453125 0.428819444444433  C 9.93815104166669 0.714699074074072  10 1.05324074074072  10 1.44444444444443  C 10 1.83564814814814  9.93815104166669 2.17418981481479  9.814453125 2.46006944444443  L 5.439453125 12.5711805555556  C 5.31575520833331 12.8570601851852  5.16927083333331 13  5 13  C 4.83072916666669 13  4.68424479166669 12.8570601851852  4.560546875 12.5711805555556  L 0.185546875 2.46006944444443  C 0.0618489583333063 2.17418981481479  0 1.83564814814814  0 1.44444444444443  C 0 1.05324074074072  0.0618489583333063 0.714699074074072  0.185546875 0.428819444444433  C 0.309244791666694 0.142939814814793  0.455729166666694 0  0.625 0  L 4.16665319954429 0  L 9.375 0  C 9.54427083333331 0  9.69075520833331 0.142939814814793  9.814453125 0.428819444444433  Z " fill-rule="nonzero" fill="#333333" stroke="none" transform="matrix(1 0 0 1 371 603 )" />
  </g>
</svg>